<svg height="512pt" viewBox="0 -20 512 512" width="512pt" xmlns="http://www.w3.org/2000/svg"><path d="m492 118h-59.824219c-4.902343-22.460938-24.933593-39.332031-48.84375-39.332031h-48.332031v-38.667969h58.667969c11.046875 0 20-8.953125 20-20s-8.953125-20-20-20h-157.335938c-11.046875 0-20 8.953125-20 20s8.953125 20 20 20h58.667969v38.667969h-48.332031c-23.910157 0-43.941407 16.871093-48.84375 39.332031h-59.824219c-76.09375 0-138 61.90625-138 138v78.667969c0 11.046875 8.953125 20 20 20h118c11.046875 0 20-8.953125 20-20v-58.667969h39.824219c4.902343 22.460938 24.933593 39.332031 48.84375 39.332031h136.667969c23.90625 0 43.941406-16.871093 48.839843-39.332031h59.824219c11.046875 0 20-8.953125 20-20v-118c0-11.046875-8.953125-20-20-20zm-354 118c-11.046875 0-20 8.953125-20 20v58.667969h-78v-58.667969c0-54.039062 43.960938-98 98-98h58.667969v78zm255.332031 29.332031c0 5.515625-4.484375 10-10 10h-136.664062c-5.515625 0-10-4.484375-10-10v-136.667969c0-5.511718 4.484375-10 10-10h136.667969c5.511718 0 10 4.488282 10 10v136.667969zm78.667969-29.332031h-38.667969v-78h38.667969zm-392.667969 177.332031v39.332031c0 11.046876-8.953125 20-20 20s-20-8.953124-20-20v-39.332031c0-11.046875 8.953125-20 20-20s20 8.953125 20 20zm0 0"/></svg>