<svg height="496pt" viewBox="-24 0 496 496" width="496pt" xmlns="http://www.w3.org/2000/svg"><path d="m428.335938 219.671875c-2.582032-9.871094-6.511719-19.328125-11.726563-28.199219l9.292969-18.585937-30.78125-30.78125-18.585938 9.292969c-8.871094-5.214844-18.328125-9.152344-28.207031-11.726563l-6.558594-19.671875h-43.53125l-6.558593 19.671875c-1.238282.320313-2.449219.726563-3.671876 1.097656v-100.769531c0-22.054688-17.945312-40-40-40h-208.007812c-22.054688 0-40 17.945312-40 40v416c0 22.054688 17.945312 40 40 40h208c22.054688 0 40-17.945312 40-40v-100.769531c1.222656.371093 2.441406.777343 3.671875 1.097656l6.558594 19.671875h43.53125l6.558593-19.671875c9.878907-2.574219 19.335938-6.503906 28.207032-11.726563l18.585937 9.292969 30.78125-30.78125-9.292969-18.585937c5.207032-8.871094 9.140626-18.328125 11.726563-28.199219l19.671875-6.558594v-43.53125zm-388.335938-203.671875h208c13.230469 0 24 10.769531 24 24v8h-256v-8c0-13.230469 10.769531-24 24-24zm208 464h-208c-13.230469 0-24-10.769531-24-24v-24h256v24c0 13.230469-10.769531 24-24 24zm24-64h-256v-352h256v82.921875c-2.886719 1.382813-5.753906 2.847656-8.527344 4.476563l-7.472656-3.734376v-67.664062h-224v320h224v-51.664062l7.472656-3.734376c2.785156 1.636719 5.640625 3.09375 8.527344 4.476563zm-48.609375-224.527344c-5.207031 8.871094-9.144531 18.328125-11.726563 28.199219l-19.664062 6.558594v43.53125l19.664062 6.558593c2.582032 9.871094 6.511719 19.328126 11.726563 28.199219l-9.292969 18.585938 25.902344 25.910156v34.984375h-192v-288h192v50.984375l-25.902344 25.894531zm208.609375 66.757813-17.265625 5.761719-.964844 4.449218c-2.417969 11.125-6.808593 21.679688-13.035156 31.367188l-2.460937 3.832031 8.167968 16.320313-14.472656 14.472656-16.328125-8.167969-3.832031 2.46875c-9.6875 6.226563-20.242188 10.617187-31.359375 13.035156l-4.449219.964844-5.769531 17.265625h-20.46875l-5.761719-17.265625-4.449219-.964844c-11.125-2.417969-21.671875-6.808593-31.359375-13.035156l-3.832031-2.46875-16.328125 8.167969-14.472656-14.472656 8.167968-16.320313-2.460937-3.832031c-6.234375-9.6875-10.617187-20.242188-13.035156-31.367188l-.964844-4.449218-17.265625-5.761719v-20.46875l17.265625-5.761719.964844-4.449219c2.417969-11.125 6.808593-21.679687 13.035156-31.367187l2.460937-3.832032-8.167968-16.320312 14.472656-14.472656 16.328125 8.167968 3.832031-2.46875c9.6875-6.226562 20.242188-10.617187 31.359375-13.035156l4.449219-.964844 5.769531-17.257812h20.46875l5.761719 17.265625 4.449219.964844c11.125 2.417969 21.671875 6.808593 31.359375 13.035156l3.832031 2.46875 16.328125-8.167969 14.472656 14.472656-8.167968 16.320313 2.460937 3.832031c6.234375 9.6875 10.617187 20.242188 13.035156 31.367188l.964844 4.449218 17.265625 5.761719zm0 0"/><path d="m320 168c-44.113281 0-80 35.886719-80 80s35.886719 80 80 80 80-35.886719 80-80-35.886719-80-80-80zm0 144c-35.289062 0-64-28.710938-64-64s28.710938-64 64-64 64 28.710938 64 64-28.710938 64-64 64zm0 0"/><path d="m320 216c-17.648438 0-32 14.351562-32 32s14.351562 32 32 32 32-14.351562 32-32-14.351562-32-32-32zm0 48c-8.824219 0-16-7.175781-16-16s7.175781-16 16-16 16 7.175781 16 16-7.175781 16-16 16zm0 0"/><path d="m120 448h48v16h-48zm0 0"/><path d="m122.34375 189.65625 18.34375 18.34375h-76.6875v16h115.3125l-45.65625-45.65625zm0 0"/><path d="m64 288h76.6875l-18.34375 18.34375 11.3125 11.3125 45.65625-45.65625h-115.3125zm0 0"/><path d="m160 240h16v16h-16zm0 0"/><path d="m128 240h16v16h-16zm0 0"/><path d="m96 240h16v16h-16zm0 0"/></svg>